<?xml version="1.0" encoding="UTF-8" standalone="no"?>
<svg width="364.419mm" height="25.4mm"
 xmlns="http://www.w3.org/2000/svg" xmlns:xlink="http://www.w3.org/1999/xlink"  version="1.2" baseProfile="tiny">
<title>Qt SVG Document</title>
<desc>Generated with Qt</desc>
<defs>
</defs>
<g fill="none" stroke="black" stroke-width="1" fill-rule="evenodd" stroke-linecap="square" stroke-linejoin="bevel" >

<g fill="none" stroke="#000000" stroke-opacity="1" stroke-width="1" stroke-linecap="square" stroke-linejoin="bevel" transform="matrix(1,0,0,1,0,0)"
font-family="Sans Serif" font-size="9" font-weight="400" font-style="normal" 
>
</g>

<g fill="none" stroke="#000000" stroke-opacity="1" stroke-width="1" stroke-linecap="square" stroke-linejoin="bevel" transform="matrix(1,0,0,1,0,0)"
font-family="Sans Serif" font-size="9" font-weight="400" font-style="normal" 
>
</g>

<g fill="none" stroke="#000000" stroke-opacity="1" stroke-width="1" stroke-linecap="square" stroke-linejoin="bevel" transform="matrix(1.99934,0,0,1.99934,0.000799735,71.9761)"
font-family="Sans Serif" font-size="9" font-weight="400" font-style="normal" 
>
</g>

<g fill="#ffffff" fill-opacity="1" stroke="none" transform="matrix(1.99934,0,0,1.99934,0.000799735,71.9761)"
font-family="Sans Serif" font-size="9" font-weight="400" font-style="normal" 
>
<rect x="-0.0004" y="-36" width="516.671" height="36"/>
</g>

<g fill="none" stroke="#000000" stroke-opacity="1" stroke-width="1" stroke-linecap="square" stroke-linejoin="bevel" transform="matrix(1.99934,0,0,1.99934,0.000799735,71.9761)"
font-family="Sans Serif" font-size="9" font-weight="400" font-style="normal" 
>
</g>

<g fill="none" stroke="#000000" stroke-opacity="1" stroke-width="1" stroke-linecap="square" stroke-linejoin="bevel" transform="matrix(1.99934,0,0,1.99934,0.000799735,71.9761)"
font-family="Sans Serif" font-size="9" font-weight="400" font-style="normal" 
>
</g>

<g fill="none" stroke="#000000" stroke-opacity="1" stroke-width="1" stroke-linecap="square" stroke-linejoin="bevel" transform="matrix(1.99934,0,0,1.99934,0.000799735,71.9761)"
font-family="Sans Serif" font-size="9" font-weight="400" font-style="normal" 
>
</g>

<g fill="none" stroke="#000000" stroke-opacity="1" stroke-width="1" stroke-linecap="square" stroke-linejoin="bevel" transform="matrix(1.99934,0,0,1.99934,0.000799735,71.9761)"
font-family="Sans Serif" font-size="9" font-weight="400" font-style="normal" 
>
</g>

<g fill="none" stroke="#000000" stroke-opacity="1" stroke-width="1" stroke-linecap="square" stroke-linejoin="round" transform="matrix(1.99934,0,0,1.99934,0.000799735,71.9761)"
font-family="Sans Serif" font-size="9" font-weight="400" font-style="normal" 
>
<ellipse cx="393.18" cy="-18" rx="122.991" ry="17.5"/>
</g>

<g fill="none" stroke="#000000" stroke-opacity="1" stroke-width="1" stroke-linecap="square" stroke-linejoin="bevel" transform="matrix(1.99934,0,0,1.99934,0.000799735,71.9761)"
font-family="Sans Serif" font-size="9" font-weight="400" font-style="normal" 
>
</g>

<g fill="none" stroke="#000000" stroke-opacity="1" stroke-width="1" stroke-linecap="square" stroke-linejoin="bevel" transform="matrix(1.99934,0,0,1.99934,608.722,22.9924)"
font-family="Sans Serif" font-size="9" font-weight="400" font-style="normal" 
>
</g>

<g fill="none" stroke="#000000" stroke-opacity="1" stroke-width="1" stroke-linecap="square" stroke-linejoin="bevel" transform="matrix(1.99934,0,0,1.99934,608.722,22.9924)"
font-family="sans" font-size="11" font-weight="100" font-style="normal" 
>
</g>

<g fill="#000000" fill-opacity="1" stroke="#000000" stroke-opacity="1" stroke-width="1" stroke-linecap="square" stroke-linejoin="round" transform="matrix(1.99934,0,0,1.99934,608.722,22.9924)"
font-family="sans" font-size="11" font-weight="100" font-style="normal" 
>
<path vector-effect="none" fill-rule="nonzero" d="M2.96875,1.98438 L3.53125,1.98438 L0.734375,11.0156 L0.171875,11.0156 L2.96875,1.98438 M8.21875,4.40625 C8.13542,4.36458 8.02604,4.33333 7.89062,4.3125 C7.76562,4.29167 7.61458,4.28125 7.4375,4.28125 C6.82292,4.28125 6.31771,4.50521 5.92188,4.95312 C5.59896,5.31771 5.4375,5.94271 5.4375,6.82812 L5.4375,10 L4.95312,10 L4.95312,3.98438 L5.4375,3.98438 L5.4375,5.10938 C5.60417,4.78646 5.83333,4.51562 6.125,4.29688 C6.52083,3.99479 6.98958,3.84375 7.53125,3.84375 C7.67708,3.84375 7.80208,3.84896 7.90625,3.85938 C8.01042,3.85938 8.11458,3.86979 8.21875,3.89062 L8.21875,4.40625 M14.1562,6.75 L14.1562,7.0625 L9.59375,7.0625 C9.59375,8.02083 9.78125,8.69792 10.1562,9.09375 C10.5729,9.52083 11.1875,9.73438 12,9.73438 C12.2188,9.73438 12.5052,9.6875 12.8594,9.59375 C13.2135,9.5 13.5677,9.35938 13.9219,9.17188 L13.9219,9.6875 C13.5677,9.84375 13.2057,9.96094 12.8359,10.0391 C12.4661,10.1172 12.1719,10.1562 11.9531,10.1562 C11.026,10.1562 10.3281,9.90625 9.85938,9.40625 C9.34896,8.875 9.09375,8.09375 9.09375,7.0625 C9.09375,5.98958 9.32292,5.1875 9.78125,4.65625 C10.2604,4.11458 10.9271,3.84375 11.7812,3.84375 C12.5625,3.84375 13.1562,4.10417 13.5625,4.625 C13.9583,5.16667 14.1562,5.875 14.1562,6.75 M13.6562,6.64062 C13.6562,5.79688 13.4635,5.18229 13.0781,4.79688 C12.7656,4.45312 12.3333,4.28125 11.7812,4.28125 C11.1875,4.28125 10.6875,4.45833 10.2812,4.8125 C9.90625,5.14583 9.68229,5.75521 9.60938,6.64062 L13.6562,6.64062 M20.3438,4.28125 L20.3438,4.79688 C20.0521,4.61979 19.8073,4.5 19.6094,4.4375 C19.276,4.33333 18.9583,4.28125 18.6562,4.28125 C17.7917,4.28125 17.1719,4.5026 16.7969,4.94531 C16.4219,5.38802 16.2344,6.07292 16.2344,7 C16.2344,7.9375 16.4219,8.6276 16.7969,9.07031 C17.1719,9.51302 17.7917,9.73438 18.6562,9.73438 C18.9479,9.73438 19.2292,9.69271 19.5,9.60938 C19.7917,9.53646 20.0729,9.42188 20.3438,9.26562 L20.3438,9.76562 C20.0729,9.90104 19.7917,10 19.5,10.0625 C19.1979,10.125 18.901,10.1562 18.6094,10.1562 C17.7344,10.1562 17.0365,9.91667 16.5156,9.4375 C15.9948,8.95833 15.7344,8.14323 15.7344,6.99219 C15.7344,5.84115 15.9948,5.02604 16.5156,4.54688 C17.0365,4.07812 17.7344,3.84375 18.6094,3.84375 C18.901,3.84375 19.2083,3.88542 19.5312,3.96875 C19.8542,4.04167 20.125,4.14583 20.3438,4.28125 M25.8594,5.01562 C25.5052,4.52604 25.0208,4.28125 24.4062,4.28125 C23.7917,4.28125 23.3073,4.52604 22.9531,5.01562 C22.599,5.49479 22.4219,6.15104 22.4219,6.98438 C22.4219,7.83854 22.599,8.51042 22.9531,9 C23.3073,9.48958 23.7917,9.73438 24.4062,9.73438 C25.0208,9.73438 25.5052,9.48958 25.8594,9 C26.2135,8.5 26.3906,7.82812 26.3906,6.98438 C26.3906,6.16146 26.2135,5.50521 25.8594,5.01562 M24.4062,3.84375 C25.1667,3.84375 25.7708,4.13021 26.2188,4.70312 C26.6667,5.27604 26.8906,6.03646 26.8906,6.98438 C26.8906,7.97396 26.6667,8.75521 26.2188,9.32812 C25.7708,9.90104 25.1667,10.1875 24.4062,10.1875 C23.625,10.1875 23.0104,9.90104 22.5625,9.32812 C22.125,8.75521 21.9062,7.97396 21.9062,6.98438 C21.9062,6.02604 22.1302,5.26302 22.5781,4.69531 C23.026,4.1276 23.6354,3.84375 24.4062,3.84375 M32.2656,4.40625 C32.1823,4.36458 32.0729,4.33333 31.9375,4.3125 C31.8125,4.29167 31.6615,4.28125 31.4844,4.28125 C30.8698,4.28125 30.3646,4.50521 29.9688,4.95312 C29.6458,5.31771 29.4844,5.94271 29.4844,6.82812 L29.4844,10 L29,10 L29,3.98438 L29.4844,3.98438 L29.4844,5.10938 C29.651,4.78646 29.8802,4.51562 30.1719,4.29688 C30.5677,3.99479 31.0365,3.84375 31.5781,3.84375 C31.724,3.84375 31.849,3.84896 31.9531,3.85938 C32.0573,3.85938 32.1615,3.86979 32.2656,3.89062 L32.2656,4.40625 M37.5156,5.35938 L37.5156,1.64062 L37.9844,1.64062 L37.9844,10 L37.5156,10 L37.5156,8.64062 C37.2865,9.16146 37.0365,9.51562 36.7656,9.70312 C36.3698,10.0052 35.9896,10.1562 35.625,10.1562 C34.9167,10.1562 34.3255,9.86719 33.8516,9.28906 C33.3776,8.71094 33.1406,7.94792 33.1406,7 C33.1406,6.05208 33.3776,5.28906 33.8516,4.71094 C34.3255,4.13281 34.9167,3.84375 35.625,3.84375 C35.9896,3.84375 36.3698,3.98958 36.7656,4.28125 C37.0365,4.47917 37.2865,4.83854 37.5156,5.35938 M34.2812,4.90625 C33.8646,5.32292 33.6562,6.02083 33.6562,7 C33.6562,7.97917 33.8646,8.67708 34.2812,9.09375 C34.6979,9.51042 35.1354,9.71875 35.5938,9.71875 C36.0417,9.71875 36.474,9.51042 36.8906,9.09375 C37.2969,8.67708 37.5,7.97917 37.5,7 C37.5,6.02083 37.2969,5.32292 36.8906,4.90625 C36.474,4.48958 36.0417,4.28125 35.5938,4.28125 C35.1354,4.28125 34.6979,4.48958 34.2812,4.90625 M44.8438,12.1719 L44.8438,12.5938 L39.125,12.5938 L39.125,12.1719 L44.8438,12.1719 M46.375,9.5625 L48.1406,9.5625 L48.1406,2.46875 L45.9375,3.35938 L45.9375,2.85938 L48.125,1.98438 L48.6719,1.98438 L48.6719,9.5625 L50.4531,9.5625 L50.4531,10 L46.375,10 L46.375,9.5625 M53.125,1.98438 L56.9219,1.98438 L56.9219,2.42188 L53.6562,2.42188 L53.6562,5.10938 C53.8229,5.04688 53.9844,5 54.1406,4.96875 C54.2969,4.9375 54.526,4.92188 54.8281,4.92188 C55.651,4.92188 56.3021,5.15104 56.7812,5.60938 C57.2604,6.05729 57.5,6.66146 57.5,7.42188 C57.5,8.28646 57.25,8.95833 56.75,9.4375 C56.2604,9.91667 55.5677,10.1562 54.6719,10.1562 C54.3802,10.1562 54.0781,10.1302 53.7656,10.0781 C53.4531,10.026 53.1302,9.95312 52.7969,9.85938 L52.7969,9.3125 C53.0781,9.4375 53.3698,9.53646 53.6719,9.60938 C53.974,9.67188 54.2917,9.70312 54.625,9.70312 C55.3333,9.70312 55.901,9.5 56.3281,9.09375 C56.7552,8.6875 56.9688,8.13021 56.9688,7.42188 C56.9688,6.78646 56.7604,6.28646 56.3438,5.92188 C55.9271,5.54688 55.3646,5.35938 54.6562,5.35938 C54.5104,5.35938 54.2917,5.40104 54,5.48438 C53.7188,5.55729 53.4271,5.67708 53.125,5.84375 L53.125,1.98438 M63.125,2.28125 L59.7969,7.4375 L63.125,7.4375 L63.125,2.28125 M62.7031,1.98438 L63.6719,1.98438 L63.6719,7.4375 L64.8281,7.4375 L64.8281,7.875 L63.6719,7.875 L63.6719,10 L63.125,10 L63.125,7.875 L59.2344,7.875 L59.2344,7.3125 L62.7031,1.98438 M67.3281,9.5625 L69.0938,9.5625 L69.0938,2.46875 L66.8906,3.35938 L66.8906,2.85938 L69.0781,1.98438 L69.625,1.98438 L69.625,9.5625 L71.4062,9.5625 L71.4062,10 L67.3281,10 L67.3281,9.5625 M77.0938,2.28125 L73.7656,7.4375 L77.0938,7.4375 L77.0938,2.28125 M76.6719,1.98438 L77.6406,1.98438 L77.6406,7.4375 L78.7969,7.4375 L78.7969,7.875 L77.6406,7.875 L77.6406,10 L77.0938,10 L77.0938,7.875 L73.2031,7.875 L73.2031,7.3125 L76.6719,1.98438 M84.6406,5.92969 C84.3073,5.53906 83.8568,5.34375 83.2891,5.34375 C82.7214,5.34375 82.2708,5.53906 81.9375,5.92969 C81.6042,6.32031 81.4375,6.85417 81.4375,7.53125 C81.4375,8.20833 81.6042,8.74219 81.9375,9.13281 C82.2708,9.52344 82.7214,9.71875 83.2891,9.71875 C83.8568,9.71875 84.3073,9.52344 84.6406,9.13281 C84.974,8.74219 85.1406,8.20833 85.1406,7.53125 C85.1406,6.85417 84.974,6.32031 84.6406,5.92969 M85.2969,2.15625 L85.2969,2.73438 C85.0469,2.57812 84.7917,2.46354 84.5312,2.39062 C84.2812,2.30729 84.0312,2.26562 83.7812,2.26562 C82.7188,2.26562 81.974,2.79167 81.5469,3.84375 C81.349,4.3125 81.2604,5.11979 81.2812,6.26562 C81.4583,5.86979 81.6875,5.5625 81.9688,5.34375 C82.3333,5.05208 82.7969,4.90625 83.3594,4.90625 C84.026,4.90625 84.5833,5.14062 85.0312,5.60938 C85.4792,6.08854 85.7031,6.69271 85.7031,7.42188 C85.7031,8.24479 85.4844,8.90625 85.0469,9.40625 C84.6094,9.90625 84.0365,10.1562 83.3281,10.1562 C82.4844,10.1562 81.8385,9.80208 81.3906,9.09375 C80.9427,8.375 80.7188,7.34375 80.7188,6 C80.7188,4.5625 80.9948,3.50521 81.5469,2.82812 C82.0885,2.16146 82.8229,1.82812 83.75,1.82812 C84,1.82812 84.25,1.85938 84.5,1.92188 C84.75,1.97396 85.0156,2.05208 85.2969,2.15625 M91.0625,2.28125 L87.7344,7.4375 L91.0625,7.4375 L91.0625,2.28125 M90.6406,1.98438 L91.6094,1.98438 L91.6094,7.4375 L92.7656,7.4375 L92.7656,7.875 L91.6094,7.875 L91.6094,10 L91.0625,10 L91.0625,7.875 L87.1719,7.875 L87.1719,7.3125 L90.6406,1.98438 M95.1094,9.82812 L95.1094,9.26562 C95.3594,9.41146 95.6094,9.52604 95.8594,9.60938 C96.1094,9.68229 96.3594,9.71875 96.6094,9.71875 C97.6719,9.71875 98.4167,9.19792 98.8438,8.15625 C99.0417,7.67708 99.1302,6.86979 99.1094,5.73438 C98.9323,6.13021 98.7031,6.4375 98.4219,6.65625 C98.0573,6.94792 97.599,7.09375 97.0469,7.09375 C96.3698,7.09375 95.8073,6.85417 95.3594,6.375 C94.9115,5.90625 94.6875,5.30208 94.6875,4.5625 C94.6875,3.73958 94.9062,3.07812 95.3438,2.57812 C95.7917,2.07812 96.3646,1.82812 97.0625,1.82812 C97.9062,1.82812 98.5521,2.1875 99,2.90625 C99.4479,3.61458 99.6719,4.64583 99.6719,6 C99.6719,7.4375 99.3958,8.48958 98.8438,9.15625 C98.3021,9.82292 97.5677,10.1562 96.6406,10.1562 C96.3906,10.1562 96.1406,10.1302 95.8906,10.0781 C95.6406,10.026 95.3802,9.94271 95.1094,9.82812 M95.75,6.05469 C96.0833,6.44531 96.5339,6.64062 97.1016,6.64062 C97.6693,6.64062 98.1198,6.44531 98.4531,6.05469 C98.7865,5.66406 98.9531,5.13021 98.9531,4.45312 C98.9531,3.77604 98.7865,3.24219 98.4531,2.85156 C98.1198,2.46094 97.6693,2.26562 97.1016,2.26562 C96.5339,2.26562 96.0833,2.46094 95.75,2.85156 C95.4167,3.24219 95.25,3.77604 95.25,4.45312 C95.25,5.13021 95.4167,5.66406 95.75,6.05469 M104.109,6 C103.505,6 103.031,6.16667 102.688,6.5 C102.354,6.83333 102.188,7.28906 102.188,7.86719 C102.188,8.44531 102.354,8.90104 102.688,9.23438 C103.031,9.56771 103.503,9.73438 104.102,9.73438 C104.701,9.73438 105.172,9.56771 105.516,9.23438 C105.87,8.90104 106.047,8.44792 106.047,7.875 C106.047,7.29167 105.875,6.83333 105.531,6.5 C105.188,6.16667 104.714,6 104.109,6 M103.016,5.73438 C102.672,5.59896 102.391,5.38021 102.172,5.07812 C101.932,4.76562 101.812,4.38021 101.812,3.92188 C101.812,3.27604 102.018,2.76562 102.43,2.39062 C102.841,2.01562 103.401,1.82812 104.109,1.82812 C104.818,1.82812 105.375,2.01562 105.781,2.39062 C106.188,2.76562 106.391,3.27604 106.391,3.92188 C106.391,4.39062 106.276,4.77604 106.047,5.07812 C105.807,5.39062 105.526,5.60938 105.203,5.73438 C105.599,5.85938 105.922,6.09375 106.172,6.4375 C106.432,6.79167 106.562,7.22917 106.562,7.75 C106.562,8.52083 106.354,9.11458 105.938,9.53125 C105.51,9.94792 104.901,10.1562 104.109,10.1562 C103.318,10.1562 102.708,9.94792 102.281,9.53125 C101.854,9.11458 101.641,8.52083 101.641,7.75 C101.641,7.22917 101.771,6.79167 102.031,6.4375 C102.323,6.08333 102.651,5.84896 103.016,5.73438 M102.82,2.71094 C102.513,2.9974 102.359,3.40104 102.359,3.92188 C102.359,4.44271 102.513,4.84896 102.82,5.14062 C103.128,5.43229 103.557,5.57812 104.109,5.57812 C104.651,5.57812 105.078,5.43229 105.391,5.14062 C105.703,4.84896 105.859,4.44271 105.859,3.92188 C105.859,3.40104 105.703,3 105.391,2.71875 C105.078,2.42708 104.651,2.28125 104.109,2.28125 C103.557,2.28125 103.128,2.42448 102.82,2.71094 M109.234,9.5625 L111,9.5625 L111,2.46875 L108.797,3.35938 L108.797,2.85938 L110.984,1.98438 L111.531,1.98438 L111.531,9.5625 L113.312,9.5625 L113.312,10 L109.234,10 L109.234,9.5625 M116.062,9.82812 L116.062,9.26562 C116.312,9.41146 116.562,9.52604 116.812,9.60938 C117.062,9.68229 117.312,9.71875 117.562,9.71875 C118.625,9.71875 119.37,9.19792 119.797,8.15625 C119.995,7.67708 120.083,6.86979 120.062,5.73438 C119.885,6.13021 119.656,6.4375 119.375,6.65625 C119.01,6.94792 118.552,7.09375 118,7.09375 C117.323,7.09375 116.76,6.85417 116.312,6.375 C115.865,5.90625 115.641,5.30208 115.641,4.5625 C115.641,3.73958 115.859,3.07812 116.297,2.57812 C116.745,2.07812 117.318,1.82812 118.016,1.82812 C118.859,1.82812 119.505,2.1875 119.953,2.90625 C120.401,3.61458 120.625,4.64583 120.625,6 C120.625,7.4375 120.349,8.48958 119.797,9.15625 C119.255,9.82292 118.521,10.1562 117.594,10.1562 C117.344,10.1562 117.094,10.1302 116.844,10.0781 C116.594,10.026 116.333,9.94271 116.062,9.82812 M116.703,6.05469 C117.036,6.44531 117.487,6.64062 118.055,6.64062 C118.622,6.64062 119.073,6.44531 119.406,6.05469 C119.74,5.66406 119.906,5.13021 119.906,4.45312 C119.906,3.77604 119.74,3.24219 119.406,2.85156 C119.073,2.46094 118.622,2.26562 118.055,2.26562 C117.487,2.26562 117.036,2.46094 116.703,2.85156 C116.37,3.24219 116.203,3.77604 116.203,4.45312 C116.203,5.13021 116.37,5.66406 116.703,6.05469 M123.047,9.82812 L123.047,9.26562 C123.297,9.41146 123.547,9.52604 123.797,9.60938 C124.047,9.68229 124.297,9.71875 124.547,9.71875 C125.609,9.71875 126.354,9.19792 126.781,8.15625 C126.979,7.67708 127.068,6.86979 127.047,5.73438 C126.87,6.13021 126.641,6.4375 126.359,6.65625 C125.995,6.94792 125.536,7.09375 124.984,7.09375 C124.307,7.09375 123.745,6.85417 123.297,6.375 C122.849,5.90625 122.625,5.30208 122.625,4.5625 C122.625,3.73958 122.844,3.07812 123.281,2.57812 C123.729,2.07812 124.302,1.82812 125,1.82812 C125.844,1.82812 126.49,2.1875 126.938,2.90625 C127.385,3.61458 127.609,4.64583 127.609,6 C127.609,7.4375 127.333,8.48958 126.781,9.15625 C126.24,9.82292 125.505,10.1562 124.578,10.1562 C124.328,10.1562 124.078,10.1302 123.828,10.0781 C123.578,10.026 123.318,9.94271 123.047,9.82812 M123.688,6.05469 C124.021,6.44531 124.471,6.64062 125.039,6.64062 C125.607,6.64062 126.057,6.44531 126.391,6.05469 C126.724,5.66406 126.891,5.13021 126.891,4.45312 C126.891,3.77604 126.724,3.24219 126.391,2.85156 C126.057,2.46094 125.607,2.26562 125.039,2.26562 C124.471,2.26562 124.021,2.46094 123.688,2.85156 C123.354,3.24219 123.188,3.77604 123.188,4.45312 C123.188,5.13021 123.354,5.66406 123.688,6.05469 M132.016,2.28125 C131.359,2.28125 130.87,2.59896 130.547,3.23438 C130.234,3.86979 130.078,4.78906 130.078,5.99219 C130.078,7.19531 130.234,8.11979 130.547,8.76562 C130.87,9.40104 131.359,9.71875 132.016,9.71875 C132.693,9.71875 133.188,9.40104 133.5,8.76562 C133.823,8.11979 133.984,7.19531 133.984,5.99219 C133.984,4.78906 133.823,3.86979 133.5,3.23438 C133.188,2.59896 132.693,2.28125 132.016,2.28125 M132.016,1.82812 C132.786,1.82812 133.396,2.14583 133.844,2.78125 C134.302,3.41667 134.531,4.48958 134.531,6 C134.531,7.51042 134.302,8.58333 133.844,9.21875 C133.396,9.84375 132.786,10.1562 132.016,10.1562 C131.266,10.1562 130.661,9.84375 130.203,9.21875 C129.755,8.58333 129.531,7.51042 129.531,6 C129.531,4.48958 129.755,3.41667 130.203,2.78125 C130.661,2.14583 131.266,1.82812 132.016,1.82812 M136.938,1.98438 L140.734,1.98438 L140.734,2.42188 L137.469,2.42188 L137.469,5.10938 C137.635,5.04688 137.797,5 137.953,4.96875 C138.109,4.9375 138.339,4.92188 138.641,4.92188 C139.464,4.92188 140.115,5.15104 140.594,5.60938 C141.073,6.05729 141.312,6.66146 141.312,7.42188 C141.312,8.28646 141.062,8.95833 140.562,9.4375 C140.073,9.91667 139.38,10.1562 138.484,10.1562 C138.193,10.1562 137.891,10.1302 137.578,10.0781 C137.266,10.026 136.943,9.95312 136.609,9.85938 L136.609,9.3125 C136.891,9.4375 137.182,9.53646 137.484,9.60938 C137.786,9.67188 138.104,9.70312 138.438,9.70312 C139.146,9.70312 139.714,9.5 140.141,9.09375 C140.568,8.6875 140.781,8.13021 140.781,7.42188 C140.781,6.78646 140.573,6.28646 140.156,5.92188 C139.74,5.54688 139.177,5.35938 138.469,5.35938 C138.323,5.35938 138.104,5.40104 137.812,5.48438 C137.531,5.55729 137.24,5.67708 136.938,5.84375 L136.938,1.98438 M146.938,2.28125 L143.609,7.4375 L146.938,7.4375 L146.938,2.28125 M146.516,1.98438 L147.484,1.98438 L147.484,7.4375 L148.641,7.4375 L148.641,7.875 L147.484,7.875 L147.484,10 L146.938,10 L146.938,7.875 L143.047,7.875 L143.047,7.3125 L146.516,1.98438 M150.828,9.5625 L155.391,9.5625 L155.391,10 L150.266,10 L150.266,9.4375 L152.266,7.35938 C152.755,6.85938 153.203,6.39583 153.609,5.96875 C153.974,5.57292 154.219,5.26562 154.344,5.04688 C154.469,4.82812 154.531,4.53646 154.531,4.17188 C154.531,3.55729 154.344,3.0625 153.969,2.6875 C153.698,2.41667 153.255,2.28125 152.641,2.28125 C152.276,2.28125 151.865,2.38542 151.406,2.59375 C151.198,2.6875 150.849,2.89062 150.359,3.20312 L150.359,2.64062 C150.568,2.49479 150.87,2.32812 151.266,2.14062 C151.724,1.94271 152.177,1.83854 152.625,1.82812 C153.312,1.82812 153.891,2.01042 154.359,2.375 C154.818,2.72917 155.047,3.3125 155.047,4.125 C155.047,4.45833 154.984,4.77083 154.859,5.0625 C154.714,5.40625 154.49,5.75521 154.188,6.10938 C154.094,6.21354 153.807,6.51042 153.328,7 L150.828,9.5625 M160.953,5.67188 C161.38,5.77604 161.719,6.01042 161.969,6.375 C162.208,6.71875 162.328,7.15104 162.328,7.67188 C162.328,8.46354 162.102,9.07552 161.648,9.50781 C161.195,9.9401 160.469,10.1562 159.469,10.1562 C159.125,10.1562 158.776,10.1042 158.422,10 C158.068,9.89583 157.703,9.72917 157.328,9.5 L157.328,8.92188 C157.63,9.18229 157.958,9.38021 158.312,9.51562 C158.667,9.65104 159.031,9.71875 159.406,9.71875 C160.177,9.71875 160.766,9.54167 161.172,9.1875 C161.578,8.84375 161.781,8.33854 161.781,7.67188 C161.781,7.13021 161.594,6.70312 161.219,6.39062 C160.844,6.08854 160.318,5.9375 159.641,5.9375 L158.703,5.9375 L158.703,5.48438 L159.688,5.48438 C160.302,5.48438 160.776,5.35938 161.109,5.10938 C161.432,4.85938 161.594,4.5 161.594,4.03125 C161.594,3.46875 161.427,3.03646 161.094,2.73438 C160.75,2.43229 160.266,2.28125 159.641,2.28125 C159.349,2.28125 159.031,2.33333 158.688,2.4375 C158.344,2.54167 157.969,2.70312 157.562,2.92188 L157.562,2.375 C157.979,2.19792 158.365,2.06771 158.719,1.98438 C159.083,1.89062 159.422,1.83854 159.734,1.82812 C160.557,1.82812 161.167,2.01562 161.562,2.39062 C161.948,2.76562 162.141,3.27604 162.141,3.92188 C162.141,4.33854 162.036,4.70833 161.828,5.03125 C161.63,5.34375 161.339,5.55729 160.953,5.67188 M165.109,9.5625 L166.875,9.5625 L166.875,2.46875 L164.672,3.35938 L164.672,2.85938 L166.859,1.98438 L167.406,1.98438 L167.406,9.5625 L169.188,9.5625 L169.188,10 L165.109,10 L165.109,9.5625 M171.781,9.5625 L176.344,9.5625 L176.344,10 L171.219,10 L171.219,9.4375 L173.219,7.35938 C173.708,6.85938 174.156,6.39583 174.562,5.96875 C174.927,5.57292 175.172,5.26562 175.297,5.04688 C175.422,4.82812 175.484,4.53646 175.484,4.17188 C175.484,3.55729 175.297,3.0625 174.922,2.6875 C174.651,2.41667 174.208,2.28125 173.594,2.28125 C173.229,2.28125 172.818,2.38542 172.359,2.59375 C172.151,2.6875 171.802,2.89062 171.312,3.20312 L171.312,2.64062 C171.521,2.49479 171.823,2.32812 172.219,2.14062 C172.677,1.94271 173.13,1.83854 173.578,1.82812 C174.266,1.82812 174.844,2.01042 175.312,2.375 C175.771,2.72917 176,3.3125 176,4.125 C176,4.45833 175.938,4.77083 175.812,5.0625 C175.667,5.40625 175.443,5.75521 175.141,6.10938 C175.047,6.21354 174.76,6.51042 174.281,7 L171.781,9.5625"/>
</g>

<g fill="none" stroke="#000000" stroke-opacity="1" stroke-width="1" stroke-linecap="square" stroke-linejoin="bevel" transform="matrix(1.99934,0,0,1.99934,608.722,22.9924)"
font-family="sans" font-size="11" font-weight="100" font-style="normal" 
>
</g>

<g fill="none" stroke="#000000" stroke-opacity="1" stroke-width="1" stroke-linecap="square" stroke-linejoin="bevel" transform="matrix(1.99934,0,0,1.99934,608.722,22.9924)"
font-family="Sans Serif" font-size="9" font-weight="400" font-style="normal" 
>
</g>

<g fill="none" stroke="#000000" stroke-opacity="1" stroke-width="1" stroke-linecap="square" stroke-linejoin="bevel" transform="matrix(1.99934,0,0,1.99934,0.000799735,71.9761)"
font-family="Sans Serif" font-size="9" font-weight="400" font-style="normal" 
>
</g>

<g fill="none" stroke="#000000" stroke-opacity="1" stroke-width="1" stroke-linecap="square" stroke-linejoin="bevel" transform="matrix(1.99934,0,0,1.99934,0.000799735,71.9761)"
font-family="Sans Serif" font-size="9" font-weight="400" font-style="normal" 
>
</g>

<g fill="none" stroke="#000000" stroke-opacity="1" stroke-width="1" stroke-linecap="square" stroke-linejoin="bevel" transform="matrix(1.99934,0,0,1.99934,0.000799735,71.9761)"
font-family="Sans Serif" font-size="9" font-weight="400" font-style="normal" 
>
</g>

<g fill="none" stroke="#000000" stroke-opacity="1" stroke-width="1" stroke-linecap="square" stroke-linejoin="round" transform="matrix(1.99934,0,0,1.99934,0.000799735,71.9761)"
font-family="Sans Serif" font-size="9" font-weight="400" font-style="normal" 
>
<ellipse cx="70.844" cy="-18" rx="70.3444" ry="17.5"/>
</g>

<g fill="none" stroke="#000000" stroke-opacity="1" stroke-width="1" stroke-linecap="square" stroke-linejoin="bevel" transform="matrix(1.99934,0,0,1.99934,0.000799735,71.9761)"
font-family="Sans Serif" font-size="9" font-weight="400" font-style="normal" 
>
</g>

<g fill="none" stroke="#000000" stroke-opacity="1" stroke-width="1" stroke-linecap="square" stroke-linejoin="bevel" transform="matrix(1.99934,0,0,1.99934,48.2822,22.9924)"
font-family="Sans Serif" font-size="9" font-weight="400" font-style="normal" 
>
</g>

<g fill="none" stroke="#000000" stroke-opacity="1" stroke-width="1" stroke-linecap="square" stroke-linejoin="bevel" transform="matrix(1.99934,0,0,1.99934,48.2822,22.9924)"
font-family="sans" font-size="11" font-weight="100" font-style="normal" 
>
</g>

<g fill="#000000" fill-opacity="1" stroke="#000000" stroke-opacity="1" stroke-width="1" stroke-linecap="square" stroke-linejoin="round" transform="matrix(1.99934,0,0,1.99934,48.2822,22.9924)"
font-family="sans" font-size="11" font-weight="100" font-style="normal" 
>
<path vector-effect="none" fill-rule="nonzero" d="M2.96875,1.98438 L3.53125,1.98438 L0.734375,11.0156 L0.171875,11.0156 L2.96875,1.98438 M8.35938,4.15625 L8.35938,4.70312 C8.00521,4.50521 7.78646,4.39583 7.70312,4.375 C7.45312,4.32292 7.14062,4.29167 6.76562,4.28125 C6.20312,4.28125 5.76042,4.39062 5.4375,4.60938 C5.1875,4.79688 5.0625,5.11458 5.0625,5.5625 C5.0625,5.875 5.18229,6.11458 5.42188,6.28125 C5.66146,6.46875 6.01042,6.61458 6.46875,6.71875 L6.8125,6.78125 C7.38542,6.90625 7.81771,7.08333 8.10938,7.3125 C8.45312,7.58333 8.63021,7.92708 8.64062,8.34375 C8.64062,8.90625 8.47396,9.34896 8.14062,9.67188 C7.78646,9.99479 7.20833,10.1562 6.40625,10.1562 C5.96875,10.1562 5.63542,10.125 5.40625,10.0625 C5.125,9.98958 4.83333,9.89583 4.53125,9.78125 L4.53125,9.15625 C4.96875,9.40625 5.25,9.55208 5.375,9.59375 C5.72917,9.6875 6.08333,9.73438 6.4375,9.73438 C7.01042,9.73438 7.4375,9.61458 7.71875,9.375 C8,9.125 8.14062,8.80729 8.14062,8.42188 C8.14062,8.08854 8.04688,7.84896 7.85938,7.70312 C7.58854,7.48438 7.16146,7.30729 6.57812,7.17188 L6.23438,7.09375 C5.72396,6.96875 5.33854,6.80208 5.07812,6.59375 C4.74479,6.32292 4.57812,5.99479 4.57812,5.60938 C4.57812,4.98438 4.77865,4.53385 5.17969,4.25781 C5.58073,3.98177 6.07292,3.84375 6.65625,3.84375 C7.15625,3.84375 7.5,3.86979 7.6875,3.92188 C7.91667,3.98438 8.14062,4.0625 8.35938,4.15625 M10.6562,3.98438 L11.1562,3.98438 L11.1562,10 L10.6562,10 L10.6562,3.98438 M10.6562,1.64062 L11.1562,1.64062 L11.1562,2.3125 L10.6562,2.3125 L10.6562,1.64062 M18.0469,5.29688 C18.2344,4.80729 18.526,4.44271 18.9219,4.20312 C19.3073,3.96354 19.7604,3.84375 20.2812,3.84375 C20.8021,3.84375 21.2188,4.02604 21.5312,4.39062 C21.8542,4.75521 22.0156,5.41667 22.0156,6.375 L22.0156,10 L21.5312,10 L21.5312,6.40625 C21.5312,5.57292 21.4167,5.01042 21.1875,4.71875 C20.9583,4.42708 20.651,4.28125 20.2656,4.28125 C19.7135,4.28125 19.2292,4.44792 18.8125,4.78125 C18.3438,5.15625 18.1094,5.76042 18.1094,6.59375 L18.1094,10 L17.625,10 L17.625,6.40625 C17.625,5.60417 17.513,5.04948 17.2891,4.74219 C17.0651,4.4349 16.7552,4.28125 16.3594,4.28125 C15.8073,4.28125 15.3229,4.45312 14.9062,4.79688 C14.4375,5.16146 14.2031,5.76042 14.2031,6.59375 L14.2031,10 L13.7188,10 L13.7188,3.98438 L14.2031,3.98438 L14.2031,5.10938 C14.3802,4.71354 14.6562,4.40104 15.0312,4.17188 C15.3958,3.95312 15.849,3.84375 16.3906,3.84375 C16.7448,3.84375 17.0833,3.95833 17.4062,4.1875 C17.6562,4.375 17.8698,4.74479 18.0469,5.29688 M24.3594,7.60938 L24.3594,3.98438 L24.8438,3.98438 L24.8438,7.57812 C24.8438,8.35938 24.9688,8.90885 25.2188,9.22656 C25.4688,9.54427 25.8385,9.70312 26.3281,9.70312 C26.901,9.70312 27.3906,9.53125 27.7969,9.1875 C28.2031,8.84375 28.4062,8.24479 28.4062,7.39062 L28.4062,3.98438 L28.8906,3.98438 L28.8906,10 L28.4062,10 L28.4062,8.875 C28.2292,9.23958 27.9948,9.51562 27.7031,9.70312 C27.2865,9.99479 26.8229,10.1406 26.3125,10.1406 C25.7188,10.1406 25.2448,9.9375 24.8906,9.53125 C24.5365,9.13542 24.3594,8.49479 24.3594,7.60938 M31.3906,1.64062 L31.875,1.64062 L31.875,10 L31.3906,10 L31.3906,1.64062 M36.8438,6.60938 C36.0417,6.60938 35.4661,6.75 35.1172,7.03125 C34.7682,7.3125 34.5938,7.72396 34.5938,8.26562 C34.5938,8.79688 34.7396,9.17448 35.0312,9.39844 C35.3229,9.6224 35.6667,9.73438 36.0625,9.73438 C36.8125,9.73438 37.3542,9.41667 37.6875,8.78125 C38.0208,8.13542 38.1875,7.53125 38.1875,6.96875 L38.1875,6.60938 L36.8438,6.60938 M38.6875,6.5625 L38.6875,10 L38.1875,10 L38.1875,8.35938 C37.9167,9.16146 37.5521,9.67188 37.0938,9.89062 C36.7396,10.0677 36.3802,10.1562 36.0156,10.1562 C35.4219,10.1562 34.9531,9.99479 34.6094,9.67188 C34.2656,9.34896 34.0938,8.8776 34.0938,8.25781 C34.0938,7.63802 34.3177,7.14062 34.7656,6.76562 C35.2135,6.39062 35.9427,6.20312 36.9531,6.20312 L38.1875,6.20312 L38.1875,6.10938 C38.1875,5.57812 38.0312,5.14062 37.7188,4.79688 C37.4271,4.45312 36.9323,4.28125 36.2344,4.28125 C35.8906,4.28125 35.5417,4.34375 35.1875,4.46875 C34.9583,4.55208 34.6562,4.71875 34.2812,4.96875 L34.2812,4.4375 C34.6042,4.23958 34.9062,4.09896 35.1875,4.01562 C35.5833,3.90104 35.9635,3.84375 36.3281,3.84375 C37.0469,3.84375 37.6354,4.05729 38.0938,4.48438 C38.4896,4.84896 38.6875,5.54167 38.6875,6.5625 M41.6875,2.28125 L41.6875,3.98438 L43.7188,3.98438 L43.7188,4.40625 L41.6875,4.40625 L41.6875,8.01562 C41.6875,8.47396 41.7448,8.79688 41.8594,8.98438 C42.1094,9.38021 42.4688,9.57812 42.9375,9.57812 L43.7188,9.57812 L43.7188,10 L42.9531,10 C42.4635,10 42.0469,9.85677 41.7031,9.57031 C41.3594,9.28385 41.1875,8.76562 41.1875,8.01562 L41.1875,4.40625 L40.4688,4.40625 L40.4688,3.98438 L41.1875,3.98438 L41.1875,2.28125 L41.6875,2.28125 M50.1719,6.75 L50.1719,7.0625 L45.6094,7.0625 C45.6094,8.02083 45.7969,8.69792 46.1719,9.09375 C46.5885,9.52083 47.2031,9.73438 48.0156,9.73438 C48.2344,9.73438 48.5208,9.6875 48.875,9.59375 C49.2292,9.5 49.5833,9.35938 49.9375,9.17188 L49.9375,9.6875 C49.5833,9.84375 49.2214,9.96094 48.8516,10.0391 C48.4818,10.1172 48.1875,10.1562 47.9688,10.1562 C47.0417,10.1562 46.3438,9.90625 45.875,9.40625 C45.3646,8.875 45.1094,8.09375 45.1094,7.0625 C45.1094,5.98958 45.3385,5.1875 45.7969,4.65625 C46.276,4.11458 46.9427,3.84375 47.7969,3.84375 C48.5781,3.84375 49.1719,4.10417 49.5781,4.625 C49.974,5.16667 50.1719,5.875 50.1719,6.75 M49.6719,6.64062 C49.6719,5.79688 49.4792,5.18229 49.0938,4.79688 C48.7812,4.45312 48.349,4.28125 47.7969,4.28125 C47.2031,4.28125 46.7031,4.45833 46.2969,4.8125 C45.9219,5.14583 45.6979,5.75521 45.625,6.64062 L49.6719,6.64062 M56.25,5.35938 L56.25,1.64062 L56.7188,1.64062 L56.7188,10 L56.25,10 L56.25,8.64062 C56.0208,9.16146 55.7708,9.51562 55.5,9.70312 C55.1042,10.0052 54.724,10.1562 54.3594,10.1562 C53.651,10.1562 53.0599,9.86719 52.5859,9.28906 C52.112,8.71094 51.875,7.94792 51.875,7 C51.875,6.05208 52.112,5.28906 52.5859,4.71094 C53.0599,4.13281 53.651,3.84375 54.3594,3.84375 C54.724,3.84375 55.1042,3.98958 55.5,4.28125 C55.7708,4.47917 56.0208,4.83854 56.25,5.35938 M53.0156,4.90625 C52.599,5.32292 52.3906,6.02083 52.3906,7 C52.3906,7.97917 52.599,8.67708 53.0156,9.09375 C53.4323,9.51042 53.8698,9.71875 54.3281,9.71875 C54.776,9.71875 55.2083,9.51042 55.625,9.09375 C56.0312,8.67708 56.2344,7.97917 56.2344,7 C56.2344,6.02083 56.0312,5.32292 55.625,4.90625 C55.2083,4.48958 54.776,4.28125 54.3281,4.28125 C53.8698,4.28125 53.4323,4.48958 53.0156,4.90625 M63.5781,12.1719 L63.5781,12.5938 L57.8594,12.5938 L57.8594,12.1719 L63.5781,12.1719 M65.2344,2.28125 L65.2344,3.98438 L67.2656,3.98438 L67.2656,4.40625 L65.2344,4.40625 L65.2344,8.01562 C65.2344,8.47396 65.2917,8.79688 65.4062,8.98438 C65.6562,9.38021 66.0156,9.57812 66.4844,9.57812 L67.2656,9.57812 L67.2656,10 L66.5,10 C66.0104,10 65.5938,9.85677 65.25,9.57031 C64.9062,9.28385 64.7344,8.76562 64.7344,8.01562 L64.7344,4.40625 L64.0156,4.40625 L64.0156,3.98438 L64.7344,3.98438 L64.7344,2.28125 L65.2344,2.28125 M68.9688,7.60938 L68.9688,3.98438 L69.4531,3.98438 L69.4531,7.57812 C69.4531,8.35938 69.5781,8.90885 69.8281,9.22656 C70.0781,9.54427 70.4479,9.70312 70.9375,9.70312 C71.5104,9.70312 72,9.53125 72.4062,9.1875 C72.8125,8.84375 73.0156,8.24479 73.0156,7.39062 L73.0156,3.98438 L73.5,3.98438 L73.5,10 L73.0156,10 L73.0156,8.875 C72.8385,9.23958 72.6042,9.51562 72.3125,9.70312 C71.8958,9.99479 71.4323,10.1406 70.9219,10.1406 C70.3281,10.1406 69.8542,9.9375 69.5,9.53125 C69.1458,9.13542 68.9688,8.49479 68.9688,7.60938 M79.2656,4.40625 C79.1823,4.36458 79.0729,4.33333 78.9375,4.3125 C78.8125,4.29167 78.6615,4.28125 78.4844,4.28125 C77.8698,4.28125 77.3646,4.50521 76.9688,4.95312 C76.6458,5.31771 76.4844,5.94271 76.4844,6.82812 L76.4844,10 L76,10 L76,3.98438 L76.4844,3.98438 L76.4844,5.10938 C76.651,4.78646 76.8802,4.51562 77.1719,4.29688 C77.5677,3.99479 78.0365,3.84375 78.5781,3.84375 C78.724,3.84375 78.849,3.84896 78.9531,3.85938 C79.0573,3.85938 79.1615,3.86979 79.2656,3.89062 L79.2656,4.40625 M81.0312,2.28125 L81.0312,3.98438 L83.0625,3.98438 L83.0625,4.40625 L81.0312,4.40625 L81.0312,8.01562 C81.0312,8.47396 81.0885,8.79688 81.2031,8.98438 C81.4531,9.38021 81.8125,9.57812 82.2812,9.57812 L83.0625,9.57812 L83.0625,10 L82.2969,10 C81.8073,10 81.3906,9.85677 81.0469,9.57031 C80.7031,9.28385 80.5312,8.76562 80.5312,8.01562 L80.5312,4.40625 L79.8125,4.40625 L79.8125,3.98438 L80.5312,3.98438 L80.5312,2.28125 L81.0312,2.28125 M84.8281,1.64062 L85.3125,1.64062 L85.3125,10 L84.8281,10 L84.8281,1.64062 M92.5625,6.75 L92.5625,7.0625 L88,7.0625 C88,8.02083 88.1875,8.69792 88.5625,9.09375 C88.9792,9.52083 89.5938,9.73438 90.4062,9.73438 C90.625,9.73438 90.9115,9.6875 91.2656,9.59375 C91.6198,9.5 91.974,9.35938 92.3281,9.17188 L92.3281,9.6875 C91.974,9.84375 91.612,9.96094 91.2422,10.0391 C90.8724,10.1172 90.5781,10.1562 90.3594,10.1562 C89.4323,10.1562 88.7344,9.90625 88.2656,9.40625 C87.7552,8.875 87.5,8.09375 87.5,7.0625 C87.5,5.98958 87.7292,5.1875 88.1875,4.65625 C88.6667,4.11458 89.3333,3.84375 90.1875,3.84375 C90.9688,3.84375 91.5625,4.10417 91.9688,4.625 C92.3646,5.16667 92.5625,5.875 92.5625,6.75 M92.0625,6.64062 C92.0625,5.79688 91.8698,5.18229 91.4844,4.79688 C91.1719,4.45312 90.7396,4.28125 90.1875,4.28125 C89.5938,4.28125 89.0938,4.45833 88.6875,4.8125 C88.3125,5.14583 88.0885,5.75521 88.0156,6.64062 L92.0625,6.64062"/>
</g>

<g fill="none" stroke="#000000" stroke-opacity="1" stroke-width="1" stroke-linecap="square" stroke-linejoin="bevel" transform="matrix(1.99934,0,0,1.99934,48.2822,22.9924)"
font-family="sans" font-size="11" font-weight="100" font-style="normal" 
>
</g>

<g fill="none" stroke="#000000" stroke-opacity="1" stroke-width="1" stroke-linecap="square" stroke-linejoin="bevel" transform="matrix(1.99934,0,0,1.99934,48.2822,22.9924)"
font-family="Sans Serif" font-size="9" font-weight="400" font-style="normal" 
>
</g>

<g fill="none" stroke="#000000" stroke-opacity="1" stroke-width="1" stroke-linecap="square" stroke-linejoin="bevel" transform="matrix(1.99934,0,0,1.99934,0.000799735,71.9761)"
font-family="Sans Serif" font-size="9" font-weight="400" font-style="normal" 
>
</g>

<g fill="none" stroke="#000000" stroke-opacity="1" stroke-width="1" stroke-linecap="square" stroke-linejoin="bevel" transform="matrix(1.99934,0,0,1.99934,0.000799735,71.9761)"
font-family="Sans Serif" font-size="9" font-weight="400" font-style="normal" 
>
</g>

<g fill="none" stroke="#000000" stroke-opacity="1" stroke-width="1" stroke-linecap="square" stroke-linejoin="bevel" transform="matrix(1.99934,0,0,1.99934,0.000799735,71.9761)"
font-family="Sans Serif" font-size="9" font-weight="400" font-style="normal" 
>
</g>

<g fill="none" stroke="#000000" stroke-opacity="1" stroke-width="1" stroke-linecap="square" stroke-linejoin="round" transform="matrix(1.99934,0,0,1.99934,0.000799735,71.9761)"
font-family="Sans Serif" font-size="9" font-weight="400" font-style="normal" 
>
<path vector-effect="none" fill-rule="evenodd" d="M141.75,-18 C176.2,-18 218.92,-18 259.27,-18 "/>
</g>

<g fill="none" stroke="#000000" stroke-opacity="1" stroke-width="1" stroke-linecap="square" stroke-linejoin="bevel" transform="matrix(1.99934,0,0,1.99934,0.000799735,71.9761)"
font-family="Sans Serif" font-size="9" font-weight="400" font-style="normal" 
>
</g>

<g fill="none" stroke="#000000" stroke-opacity="1" stroke-width="1" stroke-linecap="square" stroke-linejoin="bevel" transform="matrix(1.99934,0,0,1.99934,298.016,7.99735)"
font-family="Sans Serif" font-size="9" font-weight="400" font-style="normal" 
>
</g>

<g fill="none" stroke="#000000" stroke-opacity="1" stroke-width="1" stroke-linecap="square" stroke-linejoin="bevel" transform="matrix(1.99934,0,0,1.99934,298.016,7.99735)"
font-family="sans" font-size="11" font-weight="100" font-style="normal" 
>
</g>

<g fill="#000000" fill-opacity="1" stroke="#000000" stroke-opacity="1" stroke-width="1" stroke-linecap="square" stroke-linejoin="round" transform="matrix(1.99934,0,0,1.99934,298.016,7.99735)"
font-family="sans" font-size="11" font-weight="100" font-style="normal" 
>
<path vector-effect="none" fill-rule="nonzero" d="M2.96875,1.98438 L3.53125,1.98438 L0.734375,11.0156 L0.171875,11.0156 L2.96875,1.98438 M5.46875,2.28125 L5.46875,3.98438 L7.5,3.98438 L7.5,4.40625 L5.46875,4.40625 L5.46875,8.01562 C5.46875,8.47396 5.52604,8.79688 5.64062,8.98438 C5.89062,9.38021 6.25,9.57812 6.71875,9.57812 L7.5,9.57812 L7.5,10 L6.73438,10 C6.24479,10 5.82812,9.85677 5.48438,9.57031 C5.14062,9.28385 4.96875,8.76562 4.96875,8.01562 L4.96875,4.40625 L4.25,4.40625 L4.25,3.98438 L4.96875,3.98438 L4.96875,2.28125 L5.46875,2.28125 M9.20312,7.60938 L9.20312,3.98438 L9.6875,3.98438 L9.6875,7.57812 C9.6875,8.35938 9.8125,8.90885 10.0625,9.22656 C10.3125,9.54427 10.6823,9.70312 11.1719,9.70312 C11.7448,9.70312 12.2344,9.53125 12.6406,9.1875 C13.0469,8.84375 13.25,8.24479 13.25,7.39062 L13.25,3.98438 L13.7344,3.98438 L13.7344,10 L13.25,10 L13.25,8.875 C13.0729,9.23958 12.8385,9.51562 12.5469,9.70312 C12.1302,9.99479 11.6667,10.1406 11.1562,10.1406 C10.5625,10.1406 10.0885,9.9375 9.73438,9.53125 C9.38021,9.13542 9.20312,8.49479 9.20312,7.60938 M19.5,4.40625 C19.4167,4.36458 19.3073,4.33333 19.1719,4.3125 C19.0469,4.29167 18.8958,4.28125 18.7188,4.28125 C18.1042,4.28125 17.599,4.50521 17.2031,4.95312 C16.8802,5.31771 16.7188,5.94271 16.7188,6.82812 L16.7188,10 L16.2344,10 L16.2344,3.98438 L16.7188,3.98438 L16.7188,5.10938 C16.8854,4.78646 17.1146,4.51562 17.4062,4.29688 C17.8021,3.99479 18.2708,3.84375 18.8125,3.84375 C18.9583,3.84375 19.0833,3.84896 19.1875,3.85938 C19.2917,3.85938 19.3958,3.86979 19.5,3.89062 L19.5,4.40625 M21.2656,2.28125 L21.2656,3.98438 L23.2969,3.98438 L23.2969,4.40625 L21.2656,4.40625 L21.2656,8.01562 C21.2656,8.47396 21.3229,8.79688 21.4375,8.98438 C21.6875,9.38021 22.0469,9.57812 22.5156,9.57812 L23.2969,9.57812 L23.2969,10 L22.5312,10 C22.0417,10 21.625,9.85677 21.2812,9.57031 C20.9375,9.28385 20.7656,8.76562 20.7656,8.01562 L20.7656,4.40625 L20.0469,4.40625 L20.0469,3.98438 L20.7656,3.98438 L20.7656,2.28125 L21.2656,2.28125 M25.0625,1.64062 L25.5469,1.64062 L25.5469,10 L25.0625,10 L25.0625,1.64062 M32.7969,6.75 L32.7969,7.0625 L28.2344,7.0625 C28.2344,8.02083 28.4219,8.69792 28.7969,9.09375 C29.2135,9.52083 29.8281,9.73438 30.6406,9.73438 C30.8594,9.73438 31.1458,9.6875 31.5,9.59375 C31.8542,9.5 32.2083,9.35938 32.5625,9.17188 L32.5625,9.6875 C32.2083,9.84375 31.8464,9.96094 31.4766,10.0391 C31.1068,10.1172 30.8125,10.1562 30.5938,10.1562 C29.6667,10.1562 28.9688,9.90625 28.5,9.40625 C27.9896,8.875 27.7344,8.09375 27.7344,7.0625 C27.7344,5.98958 27.9635,5.1875 28.4219,4.65625 C28.901,4.11458 29.5677,3.84375 30.4219,3.84375 C31.2031,3.84375 31.7969,4.10417 32.2031,4.625 C32.599,5.16667 32.7969,5.875 32.7969,6.75 M32.2969,6.64062 C32.2969,5.79688 32.1042,5.18229 31.7188,4.79688 C31.4062,4.45312 30.974,4.28125 30.4219,4.28125 C29.8281,4.28125 29.3281,4.45833 28.9219,4.8125 C28.5469,5.14583 28.3229,5.75521 28.25,6.64062 L32.2969,6.64062 M35.2656,9.5625 L37.0312,9.5625 L37.0312,2.46875 L34.8281,3.35938 L34.8281,2.85938 L37.0156,1.98438 L37.5625,1.98438 L37.5625,9.5625 L39.3438,9.5625 L39.3438,10 L35.2656,10 L35.2656,9.5625 M43.5781,1.98438 L44.1406,1.98438 L41.3438,11.0156 L40.7812,11.0156 L43.5781,1.98438 M49.6719,4.28125 L49.6719,4.79688 C49.3802,4.61979 49.1354,4.5 48.9375,4.4375 C48.6042,4.33333 48.2865,4.28125 47.9844,4.28125 C47.1198,4.28125 46.5,4.5026 46.125,4.94531 C45.75,5.38802 45.5625,6.07292 45.5625,7 C45.5625,7.9375 45.75,8.6276 46.125,9.07031 C46.5,9.51302 47.1198,9.73438 47.9844,9.73438 C48.276,9.73438 48.5573,9.69271 48.8281,9.60938 C49.1198,9.53646 49.401,9.42188 49.6719,9.26562 L49.6719,9.76562 C49.401,9.90104 49.1198,10 48.8281,10.0625 C48.526,10.125 48.2292,10.1562 47.9375,10.1562 C47.0625,10.1562 46.3646,9.91667 45.8438,9.4375 C45.3229,8.95833 45.0625,8.14323 45.0625,6.99219 C45.0625,5.84115 45.3229,5.02604 45.8438,4.54688 C46.3646,4.07812 47.0625,3.84375 47.9375,3.84375 C48.2292,3.84375 48.5365,3.88542 48.8594,3.96875 C49.1823,4.04167 49.4531,4.14583 49.6719,4.28125 M55.1875,5.01562 C54.8333,4.52604 54.349,4.28125 53.7344,4.28125 C53.1198,4.28125 52.6354,4.52604 52.2812,5.01562 C51.9271,5.49479 51.75,6.15104 51.75,6.98438 C51.75,7.83854 51.9271,8.51042 52.2812,9 C52.6354,9.48958 53.1198,9.73438 53.7344,9.73438 C54.349,9.73438 54.8333,9.48958 55.1875,9 C55.5417,8.5 55.7188,7.82812 55.7188,6.98438 C55.7188,6.16146 55.5417,5.50521 55.1875,5.01562 M53.7344,3.84375 C54.4948,3.84375 55.099,4.13021 55.5469,4.70312 C55.9948,5.27604 56.2188,6.03646 56.2188,6.98438 C56.2188,7.97396 55.9948,8.75521 55.5469,9.32812 C55.099,9.90104 54.4948,10.1875 53.7344,10.1875 C52.9531,10.1875 52.3385,9.90104 51.8906,9.32812 C51.4531,8.75521 51.2344,7.97396 51.2344,6.98438 C51.2344,6.02604 51.4583,5.26302 51.9062,4.69531 C52.3542,4.1276 52.9635,3.84375 53.7344,3.84375 M58.3281,1.64062 L58.8125,1.64062 L58.8125,10 L58.3281,10 L58.3281,1.64062 M64.9531,5.01562 C64.599,4.52604 64.1146,4.28125 63.5,4.28125 C62.8854,4.28125 62.401,4.52604 62.0469,5.01562 C61.6927,5.49479 61.5156,6.15104 61.5156,6.98438 C61.5156,7.83854 61.6927,8.51042 62.0469,9 C62.401,9.48958 62.8854,9.73438 63.5,9.73438 C64.1146,9.73438 64.599,9.48958 64.9531,9 C65.3073,8.5 65.4844,7.82812 65.4844,6.98438 C65.4844,6.16146 65.3073,5.50521 64.9531,5.01562 M63.5,3.84375 C64.2604,3.84375 64.8646,4.13021 65.3125,4.70312 C65.7604,5.27604 65.9844,6.03646 65.9844,6.98438 C65.9844,7.97396 65.7604,8.75521 65.3125,9.32812 C64.8646,9.90104 64.2604,10.1875 63.5,10.1875 C62.7188,10.1875 62.1042,9.90104 61.6562,9.32812 C61.2188,8.75521 61,7.97396 61,6.98438 C61,6.02604 61.224,5.26302 61.6719,4.69531 C62.1198,4.1276 62.7292,3.84375 63.5,3.84375 M71.3594,4.40625 C71.276,4.36458 71.1667,4.33333 71.0312,4.3125 C70.9062,4.29167 70.7552,4.28125 70.5781,4.28125 C69.9635,4.28125 69.4583,4.50521 69.0625,4.95312 C68.7396,5.31771 68.5781,5.94271 68.5781,6.82812 L68.5781,10 L68.0938,10 L68.0938,3.98438 L68.5781,3.98438 L68.5781,5.10938 C68.7448,4.78646 68.974,4.51562 69.2656,4.29688 C69.6615,3.99479 70.1302,3.84375 70.6719,3.84375 C70.8177,3.84375 70.9427,3.84896 71.0469,3.85938 C71.151,3.85938 71.2552,3.86979 71.3594,3.89062 L71.3594,4.40625 M76.9688,12.1719 L76.9688,12.5938 L71.25,12.5938 L71.25,12.1719 L76.9688,12.1719 M81.5156,4.15625 L81.5156,4.70312 C81.1615,4.50521 80.9427,4.39583 80.8594,4.375 C80.6094,4.32292 80.2969,4.29167 79.9219,4.28125 C79.3594,4.28125 78.9167,4.39062 78.5938,4.60938 C78.3438,4.79688 78.2188,5.11458 78.2188,5.5625 C78.2188,5.875 78.3385,6.11458 78.5781,6.28125 C78.8177,6.46875 79.1667,6.61458 79.625,6.71875 L79.9688,6.78125 C80.5417,6.90625 80.974,7.08333 81.2656,7.3125 C81.6094,7.58333 81.7865,7.92708 81.7969,8.34375 C81.7969,8.90625 81.6302,9.34896 81.2969,9.67188 C80.9427,9.99479 80.3646,10.1562 79.5625,10.1562 C79.125,10.1562 78.7917,10.125 78.5625,10.0625 C78.2812,9.98958 77.9896,9.89583 77.6875,9.78125 L77.6875,9.15625 C78.125,9.40625 78.4062,9.55208 78.5312,9.59375 C78.8854,9.6875 79.2396,9.73438 79.5938,9.73438 C80.1667,9.73438 80.5938,9.61458 80.875,9.375 C81.1562,9.125 81.2969,8.80729 81.2969,8.42188 C81.2969,8.08854 81.2031,7.84896 81.0156,7.70312 C80.7448,7.48438 80.3177,7.30729 79.7344,7.17188 L79.3906,7.09375 C78.8802,6.96875 78.4948,6.80208 78.2344,6.59375 C77.901,6.32292 77.7344,5.99479 77.7344,5.60938 C77.7344,4.98438 77.9349,4.53385 78.3359,4.25781 C78.737,3.98177 79.2292,3.84375 79.8125,3.84375 C80.3125,3.84375 80.6562,3.86979 80.8438,3.92188 C81.0729,3.98438 81.2969,4.0625 81.5156,4.15625 M88.5156,6.75 L88.5156,7.0625 L83.9531,7.0625 C83.9531,8.02083 84.1406,8.69792 84.5156,9.09375 C84.9323,9.52083 85.5469,9.73438 86.3594,9.73438 C86.5781,9.73438 86.8646,9.6875 87.2188,9.59375 C87.5729,9.5 87.9271,9.35938 88.2812,9.17188 L88.2812,9.6875 C87.9271,9.84375 87.5651,9.96094 87.1953,10.0391 C86.8255,10.1172 86.5312,10.1562 86.3125,10.1562 C85.3854,10.1562 84.6875,9.90625 84.2188,9.40625 C83.7083,8.875 83.4531,8.09375 83.4531,7.0625 C83.4531,5.98958 83.6823,5.1875 84.1406,4.65625 C84.6198,4.11458 85.2865,3.84375 86.1406,3.84375 C86.9219,3.84375 87.5156,4.10417 87.9219,4.625 C88.3177,5.16667 88.5156,5.875 88.5156,6.75 M88.0156,6.64062 C88.0156,5.79688 87.8229,5.18229 87.4375,4.79688 C87.125,4.45312 86.6927,4.28125 86.1406,4.28125 C85.5469,4.28125 85.0469,4.45833 84.6406,4.8125 C84.2656,5.14583 84.0417,5.75521 83.9688,6.64062 L88.0156,6.64062 M95.1406,6.375 L95.1406,10 L94.6406,10 L94.6406,6.40625 C94.6406,5.625 94.5156,5.07552 94.2656,4.75781 C94.0156,4.4401 93.6458,4.28125 93.1562,4.28125 C92.5833,4.28125 92.099,4.45312 91.7031,4.79688 C91.2865,5.14062 91.0781,5.73958 91.0781,6.59375 L91.0781,10 L90.5938,10 L90.5938,3.98438 L91.0781,3.98438 L91.0781,5.10938 C91.2552,4.74479 91.4896,4.46875 91.7812,4.28125 C92.1979,3.98958 92.6615,3.84375 93.1719,3.84375 C93.776,3.84375 94.2552,4.04688 94.6094,4.45312 C94.9635,4.84896 95.1406,5.48958 95.1406,6.375 M100.969,4.15625 L100.969,4.70312 C100.615,4.50521 100.396,4.39583 100.312,4.375 C100.062,4.32292 99.75,4.29167 99.375,4.28125 C98.8125,4.28125 98.3698,4.39062 98.0469,4.60938 C97.7969,4.79688 97.6719,5.11458 97.6719,5.5625 C97.6719,5.875 97.7917,6.11458 98.0312,6.28125 C98.2708,6.46875 98.6198,6.61458 99.0781,6.71875 L99.4219,6.78125 C99.9948,6.90625 100.427,7.08333 100.719,7.3125 C101.062,7.58333 101.24,7.92708 101.25,8.34375 C101.25,8.90625 101.083,9.34896 100.75,9.67188 C100.396,9.99479 99.8177,10.1562 99.0156,10.1562 C98.5781,10.1562 98.2448,10.125 98.0156,10.0625 C97.7344,9.98958 97.4427,9.89583 97.1406,9.78125 L97.1406,9.15625 C97.5781,9.40625 97.8594,9.55208 97.9844,9.59375 C98.3385,9.6875 98.6927,9.73438 99.0469,9.73438 C99.6198,9.73438 100.047,9.61458 100.328,9.375 C100.609,9.125 100.75,8.80729 100.75,8.42188 C100.75,8.08854 100.656,7.84896 100.469,7.70312 C100.198,7.48438 99.7708,7.30729 99.1875,7.17188 L98.8438,7.09375 C98.3333,6.96875 97.9479,6.80208 97.6875,6.59375 C97.3542,6.32292 97.1875,5.99479 97.1875,5.60938 C97.1875,4.98438 97.388,4.53385 97.7891,4.25781 C98.1901,3.98177 98.6823,3.84375 99.2656,3.84375 C99.7656,3.84375 100.109,3.86979 100.297,3.92188 C100.526,3.98438 100.75,4.0625 100.969,4.15625 M106.859,5.01562 C106.505,4.52604 106.021,4.28125 105.406,4.28125 C104.792,4.28125 104.307,4.52604 103.953,5.01562 C103.599,5.49479 103.422,6.15104 103.422,6.98438 C103.422,7.83854 103.599,8.51042 103.953,9 C104.307,9.48958 104.792,9.73438 105.406,9.73438 C106.021,9.73438 106.505,9.48958 106.859,9 C107.214,8.5 107.391,7.82812 107.391,6.98438 C107.391,6.16146 107.214,5.50521 106.859,5.01562 M105.406,3.84375 C106.167,3.84375 106.771,4.13021 107.219,4.70312 C107.667,5.27604 107.891,6.03646 107.891,6.98438 C107.891,7.97396 107.667,8.75521 107.219,9.32812 C106.771,9.90104 106.167,10.1875 105.406,10.1875 C104.625,10.1875 104.01,9.90104 103.562,9.32812 C103.125,8.75521 102.906,7.97396 102.906,6.98438 C102.906,6.02604 103.13,5.26302 103.578,4.69531 C104.026,4.1276 104.635,3.84375 105.406,3.84375 M113.266,4.40625 C113.182,4.36458 113.073,4.33333 112.938,4.3125 C112.812,4.29167 112.661,4.28125 112.484,4.28125 C111.87,4.28125 111.365,4.50521 110.969,4.95312 C110.646,5.31771 110.484,5.94271 110.484,6.82812 L110.484,10 L110,10 L110,3.98438 L110.484,3.98438 L110.484,5.10938 C110.651,4.78646 110.88,4.51562 111.172,4.29688 C111.568,3.99479 112.036,3.84375 112.578,3.84375 C112.724,3.84375 112.849,3.84896 112.953,3.85938 C113.057,3.85938 113.161,3.86979 113.266,3.89062 L113.266,4.40625"/>
</g>

<g fill="none" stroke="#000000" stroke-opacity="1" stroke-width="1" stroke-linecap="square" stroke-linejoin="bevel" transform="matrix(1.99934,0,0,1.99934,298.016,7.99735)"
font-family="sans" font-size="11" font-weight="100" font-style="normal" 
>
</g>

<g fill="none" stroke="#000000" stroke-opacity="1" stroke-width="1" stroke-linecap="square" stroke-linejoin="bevel" transform="matrix(1.99934,0,0,1.99934,298.016,7.99735)"
font-family="Sans Serif" font-size="9" font-weight="400" font-style="normal" 
>
</g>

<g fill="none" stroke="#000000" stroke-opacity="1" stroke-width="1" stroke-linecap="square" stroke-linejoin="bevel" transform="matrix(1.99934,0,0,1.99934,0.000799735,71.9761)"
font-family="Sans Serif" font-size="9" font-weight="400" font-style="normal" 
>
</g>

<g fill="#000000" fill-opacity="1" stroke="#000000" stroke-opacity="1" stroke-width="1" stroke-linecap="square" stroke-linejoin="round" transform="matrix(1.99934,0,0,1.99934,0.000799735,71.9761)"
font-family="Sans Serif" font-size="9" font-weight="400" font-style="normal" 
>
<path vector-effect="none" fill-rule="evenodd" d="M259.27,-18 L259.27,-14.43 L269.47,-18 L259.27,-21.57 L259.27,-18"/>
</g>

<g fill="none" stroke="#000000" stroke-opacity="1" stroke-width="1" stroke-linecap="square" stroke-linejoin="bevel" transform="matrix(1.99934,0,0,1.99934,0.000799735,71.9761)"
font-family="Sans Serif" font-size="9" font-weight="400" font-style="normal" 
>
</g>

<g fill="none" stroke="#000000" stroke-opacity="1" stroke-width="1" stroke-linecap="square" stroke-linejoin="bevel" transform="matrix(1,0,0,1,0,0)"
font-family="Sans Serif" font-size="9" font-weight="400" font-style="normal" 
>
</g>
</g>
</svg>
